<svg width="360" height="220" viewBox="0 0 360 220" fill="none" xmlns="http://www.w3.org/2000/svg">
  <rect width="360" height="220" rx="28" fill="#FFFDF8"/>
  <rect x="28" y="28" width="304" height="164" rx="22" fill="#F5E8D8"/>
  <path d="M180 62L224 78V116C224 139.196 204.301 160.486 180 165C155.699 160.486 136 139.196 136 116V78L180 62Z" fill="#8B5A3C"/>
  <path d="M180 88C191.046 88 200 96.9543 200 108V116H160V108C160 96.9543 168.954 88 180 88Z" fill="#FFF7EE"/>
  <rect x="166" y="116" width="28" height="24" rx="8" fill="#FFF7EE"/>
  <circle cx="180" cy="126" r="4" fill="#8B5A3C"/>
  <path d="M86 164H274" stroke="#D2B292" stroke-width="8" stroke-linecap="round"/>
  <path d="M108 48L115 36" stroke="#D59A63" stroke-width="6" stroke-linecap="round"/>
  <path d="M252 48L245 36" stroke="#D59A63" stroke-width="6" stroke-linecap="round"/>
  <path d="M72 82L58 78" stroke="#D59A63" stroke-width="6" stroke-linecap="round"/>
  <path d="M288 82L302 78" stroke="#D59A63" stroke-width="6" stroke-linecap="round"/>
  <text x="180" y="188" text-anchor="middle" fill="#6B4A3A" font-family="Arial, sans-serif" font-size="24" font-weight="700">Proteção SSL ativa</text>
</svg>
